<?xml version="1.0" encoding="utf-8"?>
<!-- Generator: Adobe Illustrator 14.0.0, SVG Export Plug-In . SVG Version: 6.00 Build 43363)  -->
<!DOCTYPE svg PUBLIC "-//W3C//DTD SVG 1.1//EN" "http://www.w3.org/Graphics/SVG/1.1/DTD/svg11.dtd">
<svg version="1.1" id="Layer_1" xmlns="http://www.w3.org/2000/svg" xmlns:xlink="http://www.w3.org/1999/xlink" x="0px" y="0px"
	 width="200px" height="200px" viewBox="0 0 200 200" enable-background="new 0 0 200 200" xml:space="preserve">
<path fill="#496480" d="M156.852,80.245c-1.754,0-4.427,0.145-7.807,0.4c-1.394-15.501-14.414-27.651-30.277-27.651
	c-5.798,0-11.216,1.623-15.826,4.438c-7.094-6.593-16.595-10.631-27.044-10.631c-21.951,0-39.743,17.794-39.743,39.746
	c0,1.944,0.146,3.854,0.416,5.725c-15.862,1.082-28.397,14.285-28.397,30.425c0,16.846,13.657,30.503,30.503,30.503
	c14.156,0,102.897,0,118.176,0c20.143,0,36.476-16.33,36.476-36.479C193.327,96.579,176.994,80.245,156.852,80.245z M102.018,87.16
	c0-2.977,2.412-5.39,5.389-5.39h0.774c2.976,0,5.39,2.414,5.39,5.39v13.391c0,2.977-2.414,5.391-5.39,5.391h-0.774
	c-2.977,0-5.389-2.414-5.389-5.391V87.16z M76.781,87.16c0-2.977,2.414-5.39,5.39-5.39h0.773c2.976,0,5.39,2.414,5.39,5.39v13.391
	c0,2.977-2.414,5.391-5.39,5.391h-0.773c-2.977,0-5.39-2.414-5.39-5.391V87.16z M126.797,120.327
	c-3.674,8.786-16.119,14.69-30.966,14.69s-27.291-5.904-30.965-14.69c-0.9-2.153,0.115-4.628,2.268-5.528
	c2.153-0.9,4.627,0.115,5.527,2.268c1.926,4.607,10.701,9.502,23.17,9.502c12.47,0,21.245-4.895,23.171-9.502
	c0.899-2.151,3.377-3.166,5.527-2.268C126.681,115.699,127.696,118.174,126.797,120.327z"/>
</svg>
